<?xml version="1.0" encoding="iso-8859-1"?>
<!-- Generator: Adobe Illustrator 19.0.0, SVG Export Plug-In . SVG Version: 6.00 Build 0)  -->
<svg version="1.1" id="Layer_1" xmlns="http://www.w3.org/2000/svg" xmlns:xlink="http://www.w3.org/1999/xlink" x="0px" y="0px"
	 viewBox="0 0 511.999 511.999" style="enable-background:new 0 0 511.999 511.999;" xml:space="preserve">
<g>
	<g>
		<path d="M444.516,232.324c0-32.155-26.16-58.316-58.316-58.316c-16.819,0-31.989,7.166-42.642,18.595
			c-10.653-11.429-25.824-18.595-42.644-18.595c-9.337,0-18.162,2.218-25.995,6.137c1.499-13.094,4.833-29.997,12.053-47.512
			c20.434-49.568,61.425-79.382,121.836-88.617l-4.737-30.988c-39.484,6.035-69.188,19.568-91.537,36.368
			c-21.621-4.703-52.239-1.489-67.455,0.642c-3.21-6.488-8.223-14.645-15.778-22.541c-14.36-15.007-40.761-31.789-84.979-26.501
			l-22.1,2.641l12.042,24.142c-18.708,8.448-45.963,27.992-62.834,72.67l-3.948,10.454l8.597,7.14
			c36.743,30.516,70.092,34.051,90.53,32.146l1.456,26.941l20.521-8.62c41.057-17.247,55.723-44.879,60.796-65.021
			c2.132-8.467,2.769-16.274,2.728-22.76c9.538-1.223,20.509-2.143,30.596-2.328c-11.229,14.106-19.144,28.769-24.715,42.284
			c-9.29,22.535-13.13,44.16-14.65,60.223c-8.194-4.398-17.552-6.901-27.486-6.901c-17.308,0-32.871,7.587-43.56,19.6
			c-10.689-12.013-26.252-19.6-43.56-19.6c-32.156,0-58.316,26.16-58.316,58.316c0,28.228,20.16,51.829,46.838,57.176
			c-1.527,5.203-2.36,10.699-2.36,16.388c0,27.642,19.338,50.836,45.191,56.808c-1.653,5.396-2.549,11.12-2.549,17.05
			c0,27.65,19.348,50.849,45.212,56.813c-1.668,5.418-2.569,11.167-2.569,17.124c0,32.156,26.16,58.316,58.316,58.316
			s58.317-26.16,58.317-58.316c0-5.957-0.902-11.707-2.569-17.125c25.863-5.964,45.212-29.163,45.212-56.813
			c0-5.93-0.896-11.654-2.549-17.05c25.854-5.972,45.192-29.166,45.192-56.808c0-5.848-0.875-11.494-2.484-16.823
			C425.324,282.986,444.516,259.862,444.516,232.324z M158.285,52.655l22.433-1.975l-9.306-18.656
			c13.855,1.815,25.366,7.25,34.373,16.258c2.681,2.681,4.898,5.449,6.72,8.091l-95.786,25.311
			C135.274,56.784,156.23,52.971,158.285,52.655z M218.984,95.833c-3.226,12.809-10.655,23.621-22.171,32.317l-1.091-20.196
			l-20.589,8.775c-0.262,0.112-20.935,7.989-50.301-4.769l95.686-25.284C220.268,89.52,219.796,92.609,218.984,95.833z
			 M274.099,229.456c1.436-13.527,12.912-24.102,26.814-24.102c14.871,0,26.97,12.098,26.97,26.969
			c0,9.192-4.625,17.319-11.666,22.191c-1.183,0.637-2.334,1.322-3.466,2.035c-3.576,1.754-7.592,2.743-11.838,2.743
			c-3.647,0-7.125-0.731-10.302-2.049c-1.947-1.289-3.977-2.462-6.077-3.515c-5.717-4.385-9.636-11.002-10.435-18.54
			c0.046-0.95,0.073-1.905,0.073-2.866S274.146,230.406,274.099,229.456z M247.483,281.28c3.366-1.513,7.093-2.362,11.016-2.362
			c3.647,0,7.126,0.731,10.302,2.049c1.947,1.289,3.977,2.462,6.078,3.515c6.431,4.933,10.589,12.691,10.589,21.405
			c0,14.87-12.098,26.969-26.97,26.969c-14.871,0-26.969-12.098-26.969-26.969c0-8.934,4.37-16.863,11.08-21.774
			C244.283,283.247,245.909,282.301,247.483,281.28z M215.856,205.355c13.902,0,25.38,10.574,26.815,24.103
			c-0.046,0.95-0.073,1.905-0.073,2.866s0.026,1.916,0.073,2.866c-0.822,7.751-4.943,14.529-10.927,18.907
			c-1.673,0.868-3.299,1.814-4.872,2.834c-3.366,1.513-7.093,2.363-11.016,2.363c-3.924,0-7.65-0.85-11.016-2.363
			c-1.575-1.02-3.2-1.966-4.872-2.834c-6.71-4.91-11.08-12.84-11.08-21.774C188.887,217.453,200.985,205.355,215.856,205.355z
			 M128.737,259.294c-14.871-0.001-26.969-12.099-26.969-26.97c0-14.871,12.098-26.969,26.969-26.969s26.969,12.098,26.969,26.969
			C155.706,247.195,143.608,259.294,128.737,259.294z M173.214,332.856c-14.871,0.001-26.969-12.098-26.969-26.968
			c0-14.871,12.098-26.97,26.969-26.97c3.924,0,7.65,0.849,11.016,2.362c1.574,1.021,3.199,1.966,4.872,2.834
			c6.71,4.911,11.08,12.84,11.08,21.774C200.183,320.757,188.085,332.856,173.214,332.856z M215.856,406.715
			c-14.871,0-26.969-12.098-26.969-26.969c0-14.871,12.098-26.969,26.969-26.969s26.969,12.098,26.969,26.969
			C242.825,394.617,230.727,406.715,215.856,406.715z M258.499,480.652c-14.871,0-26.969-12.098-26.969-26.969
			s12.098-26.969,26.969-26.969c14.871,0,26.97,12.098,26.97,26.969C285.468,468.554,273.37,480.652,258.499,480.652z
			 M301.141,406.715c-14.871,0-26.97-12.098-26.97-26.969c0-14.871,12.098-26.969,26.97-26.969
			c14.871,0,26.969,12.098,26.969,26.969C328.11,394.617,316.012,406.715,301.141,406.715z M343.784,332.857
			c-14.871,0-26.969-12.098-26.969-26.969c0-9.192,4.625-17.319,11.666-22.191c1.183-0.637,2.334-1.322,3.466-2.035
			c3.576-1.754,7.592-2.743,11.836-2.743c3.647,0,7.126,0.731,10.302,2.049c1.947,1.289,3.977,2.462,6.078,3.515
			c6.431,4.933,10.589,12.691,10.589,21.405C370.753,320.758,358.655,332.857,343.784,332.857z M386.2,259.293
			c-3.647,0-7.125-0.731-10.302-2.049c-1.947-1.289-3.977-2.462-6.077-3.515c-6.431-4.933-10.589-12.691-10.589-21.406
			c0-14.871,12.098-26.969,26.969-26.969c14.871,0,26.969,12.098,26.969,26.969C413.168,247.195,401.071,259.293,386.2,259.293z"/>
	</g>
</g>
<g>
</g>
<g>
</g>
<g>
</g>
<g>
</g>
<g>
</g>
<g>
</g>
<g>
</g>
<g>
</g>
<g>
</g>
<g>
</g>
<g>
</g>
<g>
</g>
<g>
</g>
<g>
</g>
<g>
</g>
</svg>
